<?xml version="1.0" encoding="UTF-8"?>
<svg width="24px" height="24px" viewBox="0 0 24 24" version="1.1" xmlns="http://www.w3.org/2000/svg" xmlns:xlink="http://www.w3.org/1999/xlink">
    <title>Icon/Outlined/Ads</title>
    <g id="Icon/Outlined/Ads" stroke="none" stroke-width="1" fill="none" fill-rule="evenodd">
        <path d="M12.0656248,5.00468752 C11.9112912,5.00101816 11.7560448,5.00770008 11.6015624,5.02656248 C11.1890032,5.07693632 10.7806256,5.20823736 10.4,5.42812496 C9.89960808,5.71720168 9.55368432,6.147008 9.28281248,6.61718752 L9.23593752,6.58906248 L4.43593752,14.5890624 L4.45781248,14.6015624 C4.18210256,15.1023328 4,15.6424368 4,16.2 C4,16.9777776 4.25494448,17.7663048 4.80156248,18.3812496 C5.34818048,18.9961952 6.20000024,19.4 7.2,19.4 C8.19999976,19.4 9.05181952,18.9961952 9.59843752,18.3812496 C9.75320336,18.2071384 9.8332932,17.9962232 9.94218752,17.7984376 L9.96406248,17.8109376 L12,14.4187504 L14.0281248,17.8 C14.0290848,17.80168 14.0302904,17.8030072 14.0312496,17.8046872 C14.9112384,19.3234 16.8791728,19.8504576 18.4,18.9718752 C19.9226088,18.093324 20.4514256,16.1225032 19.5718752,14.6 L19.5671872,14.5937504 L14.7718752,6.6 C14.7709152,6.59832 14.7697096,6.59698448 14.7687504,6.59531248 C14.191468,5.5990024 13.145964,5.03037272 12.0656248,5.00468752 Z M12.1140624,6.6 C12.2162744,6.60702224 12.3171616,6.6236104 12.4156248,6.65 C12.80948,6.7555584 13.1628128,7.01330448 13.3859376,7.4 L13.3890624,7.40625 L13.3921872,7.41093752 L18.1859376,15.4 C18.6327872,16.1734968 18.3733912,17.139688 17.6,17.5859376 C16.8265032,18.0327872 15.860312,17.7733912 15.4140624,17 L15.4109376,16.9937504 L10.6140624,9 C10.1671326,8.2263636 10.4259456,7.26123376 11.2,6.81406248 C11.4900616,6.646494 11.8074264,6.57893328 12.1140624,6.6 Z M9.20937504,9.74218752 C9.219518,9.76057104 9.2175776,9.78174248 9.22812496,9.8 L9.23281248,9.80625 L11.0671872,12.8640624 L9.98281248,14.6718752 C9.86689304,14.447804 9.77177664,14.213756 9.59843752,14.0187504 C9.0614732,13.414664 8.22556944,13.0233192 7.24843752,13.0093752 L9.20937504,9.74218752 Z M7.2,14.6 C7.7999996,14.6 8.14818088,14.7961952 8.40156248,15.0812496 C8.65494416,15.3663056 8.8,15.7777776 8.8,16.2 C8.8,16.6222224 8.65494416,17.0336952 8.40156248,17.3187504 C8.14818088,17.6038048 7.7999996,17.8 7.2,17.8 C6.6,17.8 6.25181912,17.6038048 5.99843752,17.3187504 C5.74505584,17.0336952 5.6,16.6222224 5.6,16.2 C5.6,15.7890256 5.74653704,15.3948624 5.9875,15.1109376 L6.00781248,15.0781248 C6.26071336,14.7965928 6.60457328,14.6 7.2,14.6 Z" id="Shape" fill="#9e9e9e"></path>
    </g>
</svg>
