<?xml version="1.0" encoding="UTF-8"?>
<svg width="24px" height="24px" viewBox="0 0 24 24" version="1.1" xmlns="http://www.w3.org/2000/svg" xmlns:xlink="http://www.w3.org/1999/xlink">
    <title>Icon/Outlined/Server</title>
    <g id="Icon/Outlined/Server" stroke="none" stroke-width="1" fill="none" fill-rule="evenodd">
        <path d="M12,5.0724432 L4,12.2727273 L6.18181818,12.2727273 L6.18181818,18.8181818 L7.63636364,18.8181818 L7.63636364,10.9573862 L12,7.02982953 L16.3636364,10.9573862 L16.3636364,18.8181818 L17.8181818,18.8181818 L17.8181818,12.2727273 L20,12.2727273 L12,5.0724432 Z M9.81818182,11.5454545 C9.41672727,11.5454545 9.09090909,11.8712727 9.09090909,12.2727273 L9.09090909,13.7272727 C9.09090909,14.1287273 9.41672727,14.4545455 9.81818182,14.4545455 L14.1818182,14.4545455 C14.5832727,14.4545455 14.9090909,14.1287273 14.9090909,13.7272727 L14.9090909,12.2727273 C14.9090909,11.8712727 14.5832727,11.5454545 14.1818182,11.5454545 L9.81818182,11.5454545 Z M10.5454545,12.2727273 C10.9469091,12.2727273 11.2727273,12.5985455 11.2727273,13 C11.2727273,13.4014545 10.9469091,13.7272727 10.5454545,13.7272727 C10.144,13.7272727 9.81818182,13.4014545 9.81818182,13 C9.81818182,12.5985455 10.144,12.2727273 10.5454545,12.2727273 Z M9.81818182,15.9090909 C9.41672727,15.9090909 9.09090909,16.2349091 9.09090909,16.6363636 L9.09090909,18.0909091 C9.09090909,18.4923636 9.41672727,18.8181818 9.81818182,18.8181818 L14.1818182,18.8181818 C14.5832727,18.8181818 14.9090909,18.4923636 14.9090909,18.0909091 L14.9090909,16.6363636 C14.9090909,16.2349091 14.5832727,15.9090909 14.1818182,15.9090909 L9.81818182,15.9090909 Z M10.5454545,16.6363636 C10.9469091,16.6363636 11.2727273,16.9621818 11.2727273,17.3636364 C11.2727273,17.7650909 10.9469091,18.0909091 10.5454545,18.0909091 C10.144,18.0909091 9.81818182,17.7650909 9.81818182,17.3636364 C9.81818182,16.9621818 10.144,16.6363636 10.5454545,16.6363636 Z" id="Shape" fill="#212121"></path>
    </g>
</svg>