<?xml version="1.0" encoding="UTF-8"?>
<svg width="24px" height="24px" viewBox="0 0 24 24" version="1.1" xmlns="http://www.w3.org/2000/svg" xmlns:xlink="http://www.w3.org/1999/xlink">
    <title>Icon/Outlined/user@3x</title>
    <g id="Icon/Outlined/user" stroke="none" stroke-width="1" fill="none" fill-rule="evenodd">
        <path d="M12,4.49999996 C10.1689213,4.49999996 8.66666665,6.00225464 8.66666665,7.83333331 C8.66666665,9.66441199 10.1689213,11.1666667 12,11.1666667 C13.8310783,11.1666667 15.3333333,9.66441199 15.3333333,7.83333331 C15.3333333,6.00225464 13.8310783,4.49999996 12,4.49999996 Z M12,6.16666664 C12.930345,6.16666664 13.6666667,6.90298822 13.6666667,7.83333331 C13.6666667,8.7636784 12.930345,9.49999999 12,9.49999999 C11.069655,9.49999999 10.3333333,8.7636784 10.3333333,7.83333331 C10.3333333,6.90298822 11.069655,6.16666664 12,6.16666664 Z M12,13.6666667 C10.5458725,13.6666667 8.82263648,14.0081525 7.37434898,14.5797525 C6.65020514,14.8655525 5.99558005,15.2050417 5.47167963,15.6409509 C4.94777921,16.0768592 4.49999996,16.6661534 4.49999996,17.4166667 L4.49999996,19.5 L19.5,19.5 L19.5,18.6666667 L19.5,17.4166667 C19.5,16.6661534 19.0522209,16.0768592 18.52832,15.6409509 C18.00442,15.2050417 17.349795,14.8655525 16.6256509,14.5797525 C15.1773633,14.0081525 13.4541275,13.6666667 12,13.6666667 Z M12,15.3333333 C13.1783725,15.3333333 14.7883792,15.6449992 16.0152992,16.1292317 C16.62876,16.3713484 17.1474675,16.6599709 17.46224,16.921875 C17.77701,17.1837792 17.8333334,17.36218 17.8333334,17.4166667 L17.8333334,17.8333333 L6.16666664,17.8333333 L6.16666664,17.4166667 C6.16666664,17.36218 6.22298889,17.1837792 6.53776039,16.921875 C6.85253189,16.6599709 7.37124014,16.3713484 7.98470048,16.1292317 C9.21162124,15.6449992 10.8216275,15.3333333 12,15.3333333 Z" id="user" fill="#212121"></path>
    </g>
</svg>